<?xml version="1.0" encoding="utf-8"?>
<!-- Generator: Adobe Illustrator 27.5.0, SVG Export Plug-In . SVG Version: 6.00 Build 0)  -->
<svg version="1.1" id="Layer_1" xmlns="http://www.w3.org/2000/svg" xmlns:xlink="http://www.w3.org/1999/xlink" x="0px" y="0px"
	 viewBox="0 0 489.999 346.002" style="enable-background:new 0 0 489.999 346.002;" xml:space="preserve">
<g>
	<g>
		<path style="fill:#00AFE4;" d="M27.917,289.819c0,0-25.5,4.25-20.75,8s49.5,11,69.25,13s28,4,22.25,6.75s-12.5,6.75,18.75,11.25
			s99.25,8.75,123.75,0.75c0,0,5.5-2,3-5s-18.25-5.25,0.5-7.25s121,0.5,109.5,5.75s-8.75,10,12.25,12.5s59.5,1.5,60.5-4.75
			c0,0,1-3.25-4-4.5s-11.25-4.5,0.5-4.75s50.25,1.25,59.25-8s-44.333-24.25-44.333-24.25L27.917,289.819z"/>
		<g>
			<path style="opacity:0.6;fill:#00AFE4;" d="M423.417,321.569c11.75-0.25,50.25,1.25,59.25-8
				c7.307-7.51-26.467-18.808-39.438-22.795c-1.914,0.185-3.063,0.295-3.063,0.295s44.25,12.5,36.75,20.75
				s-34.219,7.176-55.917,7.833c-11,0.333-11.583,1.333-3.333,7.333s-1.75,7.584-26.75,7.334s-38.5-5.75-30.5-8.75
				s5.25-5-12.75-7.25s-87.75-7.75-103-6.5c-15.25,1.25-22.75,4.5-18.75,7.25s9.5,5.75-6.75,8s-73.334,4.333-98.834,0.583
				s-12.565-6.434-11.333-12c2.417-10.917-87.5-14.916-96-17.666c-5.99-1.938,3.979-5.538,7.929-6.807
				c-7.163,1.556-16.85,4.202-13.763,6.64c4.75,3.75,49.5,11,69.25,13s28,4,22.25,6.75s-12.5,6.75,18.75,11.25
				s99.25,8.75,123.75,0.75c0,0,5.5-2,3-5s-18.25-5.25,0.5-7.25s121,0.5,109.5,5.75s-8.75,10,12.25,12.5s59.5,1.5,60.5-4.75
				c0,0,1-3.25-4-4.5S411.667,321.819,423.417,321.569z"/>
		</g>
	</g>
	<g>
		<path style="fill:#237812;" d="M421.001,242.319c5.666-2,12.334-0.333,12.334-0.333c-7.333-10.333-19.666-9-19.666-9
			c3-7,10.333-10,10.333-10c-14.667-3-22.333,5-22.333,5c0.334-5,6.333-11,6.333-11c-6.333,0.667-12.333,9-12.333,9
			c0.667-6.667-5-9.667-5-9.667c2,5.666-3.002,15.667-3.002,15.667l21.001,15.666c11-2.667,24.333,3,24.333,3
			C428.334,244.318,421.001,242.319,421.001,242.319z"/>
		<path style="fill:#10481B;" d="M391.917,218.444c0,0,3.125,7,1.375,11.875l17.875,15.625c0,0,11.875-0.375,19.625,3.375
			c0,0-7.875-7-18.5-6.625c0,0,9.75-4.375,19.5-1.5c0,0-13-6.25-23.25-2.75c0,0,4.875-12.5,14-15.25c0,0-16,0.5-22.875,9.75
			c0,0,0.75-10.5,6.25-14.625c0,0-10.25,3.875-11.125,11.375C394.792,229.694,396.917,223.069,391.917,218.444z"/>
	</g>
	<g>
		<path style="fill:#BF735B;" d="M48.667,258.319c0,0-10.334-36-11-90l8.667-7.667c0,0-11.334-50.666-13.001-67L44,71.986l5-1.667
			c0,0,6.666-46,14.333-60c0,0,0.334-1.667,2.667-1c2.333,0.667,24,8.333,34.667,19.667L111,63.319c0,0,8.666,3.333,11.333,5.667
			C125,71.319,143.667,103.652,148,117.652c0,0,6-8.333,7.333-8.333c1.334,0,11.001,11.333,21.667,36c0,0,12,4.001,14.667,5.667
			c2.666,1.666,34.334,106.667,34.334,106.667L48.667,258.319z"/>
		<g>
			<path style="fill:#DA927E;" d="M89.334,171.653l-10.334-21l-28.666-13l-4,22.999l-8.667,7.667c0.666,54,11,90,11,90l86.394-0.324
				l-37.394-85.342L89.334,171.653z"/>
			<path style="fill:#7A4035;" d="M138.334,145.986L130,150.653l10.193,107.322l85.808-0.322c0,0-31.668-105.001-34.334-106.667
				C189,149.32,177,145.319,177,145.319c-10.666-24.667-20.333-36-21.667-36c-1.333,0-7.333,8.333-7.333,8.333l-10.333,9.334
				L138.334,145.986z"/>
		</g>
		<g>
			<polygon style="fill:#9A5244;" points="86.334,90.319 72.334,104.652 79.652,151.978 89.334,171.653 97.667,172.653 
				135.061,257.995 140.193,257.976 130,150.653 138.334,145.986 137.834,131.744 122.334,105.986 			"/>
			<path style="fill:#B86D58;" d="M148,117.652c-4.333-14-23-46.333-25.667-48.666C119.666,66.652,111,63.319,111,63.319
				l-10.333-34.333C90,17.652,68.333,9.986,66,9.319c-2.333-0.667-2.667,1-2.667,1c-7.667,14-14.333,60-14.333,60l-5,1.667
				L33.333,93.652c1.667,16.334,13.001,67,13.001,67l4-22.999l28.666,13l0.652,1.324l-7.318-47.325l14-14.333l36,15.667l15.5,25.758
				l-0.167-4.758L148,117.652z"/>
		</g>
		<polygon style="fill:#E9967E;" points="83.917,96.819 75.167,105.819 80.667,140.319 98.167,162.319 112.417,190.819 
			101.333,121.986 		"/>
		<polygon style="fill:#BF735B;" points="120.917,110.569 111.167,135.569 120.167,165.069 		"/>
		<polygon style="fill:#B16B54;" points="153.417,114.069 141.083,127.569 146.167,132.319 		"/>
		<polygon style="fill:#B16B54;" points="160,133.652 158.833,147.153 168.667,186.652 172.333,151.819 		"/>
		<path style="fill:#B16B54;" d="M140.167,133.819c0,0.5,0.75,16.25,0.75,16.25l-8.25,1.75l2.5,36l11.25-34.25L140.167,133.819z"/>
		<polygon style="fill:#E9967E;" points="44.667,73.069 35.417,93.569 45.667,144.069 46.667,90.569 48.417,72.319 		"/>
		<path style="fill:#E9967E;" d="M64.417,13.069c0,0-13,55.5-13.25,75.5l9.5,45.5l6-34.25L79,80.986l-4.334-48.334L64.417,13.069z"
			/>
		<path style="fill:#E9967E;" d="M94.917,29.069c0-0.5-15.25,3.583-15.25,3.583l11.5,50L94.917,29.069z"/>
		<g>
			<path style="fill:#64362A;" d="M137.667,126.986L148,117.652c-4.333-14-23-46.333-25.667-48.666
				C119.666,66.652,111,63.319,111,63.319l12.516,44.632l14.318,23.793L137.667,126.986z"/>
		</g>
		<g>
			<path style="fill:#5D3126;" d="M210.419,206.825c-8.425-27.061-17.387-54.986-18.752-55.839C189,149.32,177,145.319,177,145.319
				l20.334,57C197.334,202.319,203.919,204.572,210.419,206.825z"/>
		</g>
		<g>
			<path style="fill:#B86D58;" d="M130.498,247.583l-32.831-74.93l-8.333-1l13.333,63.666
				C102.667,235.319,117.736,241.905,130.498,247.583z"/>
		</g>
		<path style="opacity:0.5;fill:#F7BCA4;" d="M45.167,164.319l-6,5c0,0,1.5,43.5,5.5,62.25l7-24.75
			C51.667,206.819,47.167,181.819,45.167,164.319z"/>
		<polygon style="opacity:0.5;fill:#F7BCA4;" points="50.667,141.569 48.167,162.569 55.417,205.569 81.333,216.653 		"/>
	</g>
	<g>
		<path style="fill:#3D9919;" d="M36.167,270.819c0,0-10,1.25-13.75,10.5c0,0-2.25-13.75,4-17.75c0,0-8-2-13.25,2.75
			c0,0,3.25-11.5,16.25-10.5c0,0-3.25-8-15.75-7.75c0,0,7.5-5,16.75-1.25c0,0-7.5-11.5-3-25c0,0,1.5,13.5,8.5,19.5
			c0,0-3.5-18.25,11-28c0,0-1.5,10.75,1,20.75c0,0,4.75-11.75,18.5-14.25c0,0-3.75,4-5.75,10c0,0,4.25-2.75,10.75-3
			c0,0-7.25,6.5-5.5,19L36.167,270.819z"/>
		<path style="fill:#3D9919;" d="M36.167,270.819c0,0-10,1.25-13.75,10.5c0,0-2.25-13.75,4-17.75c0,0-8-2-13.25,2.75
			c0,0,3.25-11.5,16.25-10.5c0,0-3.25-8-15.75-7.75c0,0,7.5-5,16.75-1.25c0,0-7.5-11.5-3-25c0,0,1.5,13.5,8.5,19.5
			c0,0-3.5-18.25,11-28c0,0-1.5,10.75,1,20.75c0,0,4.75-11.75,18.5-14.25c0,0-3.75,4-5.75,10c0,0,4.25-2.75,10.75-3
			c0,0-7.25,6.5-5.5,19L36.167,270.819z"/>
		<path style="fill:#007634;" d="M42,266.32c0,0-12.667-1.334-17.333,7.833c0,0,4.499-13.833,19.166-14.333
			c0,0-12-5.667-22.166-0.667c0,0,8.333-5.833,22.5-3c0,0-10.001-5.999-18.834-8.833c0,0,6.001-0.833,11.167,2
			c0,0-8.667-13.001-8.833-20.834c0,0,3.5,14.833,13,19.833c0,0-8-21,5.167-32.667c0,0-2.334,21.5,4.333,30.834
			c0,0,2.5-20,12.833-24.333c0,0-7,6.501-6.5,15.667c0,0,5.166-7.666,10.833-9c0,0-5,7.166-3.166,14.166L42,266.32z"/>
	</g>
	<g>
		<g>
			<path style="fill:#834523;" d="M420.03,166.308c0,0-42.953,6.458-69.088,58.267l9.584,5.2
				C360.526,229.775,381.701,186.189,420.03,166.308z"/>
			<g>
				<path style="fill:#834523;" d="M420.03,166.308c0,0-3.98,0.6-10.247,2.891c0.211,0.027,0.343,0.044,0.343,0.044l-1.129,1.62
					l-1.113-0.231c0,0,0.89,1.102,0.246,1.373c-0.644,0.271-7.152,3.81-7.152,3.81l-1.638-0.642l0.282,1.766
					c-3.235,0.478-13.673,10.566-13.673,10.566l-3.415-1.48l2.871,3.169l-6.59,7.341l-3.96-1.158l2.284,3.102l-3.418,4.472
					c-2.5-1.11-4.597-1.131-4.597-1.131l3.364,2.942c-2.881,3.026-12.246,18.908-12.246,18.908l-6.81-3.808
					c-0.844,1.529-1.676,3.1-2.491,4.714l9.584,5.2C360.526,229.775,381.701,186.189,420.03,166.308z"/>
			</g>
			<path style="fill:#71482D;" d="M405.88,171.197c0,0-31.82,12.005-50.968,47.592l0.521-0.047
				C355.433,218.742,373.034,186.614,405.88,171.197z"/>
			<path style="fill:#237812;" d="M417.858,167.112c-0.458-0.413,11.492-1.371,21.685,6.973l-2.085,2.012l3.436,0.375
				c0,0,2.801,7.64-0.708,17.149l-3.849,0.39l2.419,3.464c0,0-5.48,8.271-11.496,11.126c0,0,0.63-9.084,0.223-10.464l2.722-1.664
				l-3.121-0.04l-1.445-9.22l3.01-2.501l-3.015,0.679C425.633,185.391,426.191,174.612,417.858,167.112z"/>
			<g>
				<path style="fill:#65B204;" d="M418.403,166.93c-0.411,0.051-0.613,0.122-0.545,0.183c8.333,7.5,7.774,18.278,7.774,18.278
					l3.015-0.679l-3.01,2.501l1.445,9.22l3.121,0.04l-2.722,1.664c0.407,1.38-0.223,10.464-0.223,10.464s7.361-13.865,5.038-26.043
					C430.33,172.246,421.166,167.992,418.403,166.93z"/>
			</g>
			<path style="fill:#237812;" d="M418.525,166.566c0,0-2.265-21.201-22.545-28.858l-4.237-0.191l2.872,4.536l4.621,0.399
				c0,0-1.214,1.324-1.658,1.458c-0.443,0.131,1.415,2.876,1.415,2.876l4.857,0.65l-3.349,0.913l2.374,3.396l5.045-0.611
				l-4.155,1.714C403.766,152.848,408.023,162.603,418.525,166.566z"/>
			<path style="fill:#65B204;" d="M416.971,167.374c0,0,0.243-7.309,3.184-12.04l1.933,0.554l-1.491-2.052l5.297-5.188l2.123,0.657
				c0,0-0.436-1.479-0.533-1.53c-0.096-0.052,5.259-2.605,7.017-2.643l1.072,1.451l0.006-1.61c0,0,6.148-1.501,13.227-0.141
				c0,0,3.985,0.427,6.348,2.701l-6.785,0.162l2.649,2.432c0,0-6.826,5.723-7.818,6.176l-1.874-2.258l0.344,2.792l-6.03,3.798
				l-0.85-2.321l-0.732,2.951l-5.458,2.743C428.597,164.009,420.025,167.916,416.971,167.374z"/>
			<g>
				<path style="fill:#237812;" d="M416.971,167.374c3.055,0.542,11.626-3.365,11.626-3.365l5.458-2.743l0.732-2.951l0.85,2.321
					l6.03-3.798l-0.344-2.792l1.874,2.258c0.992-0.453,7.818-6.176,7.818-6.176l-2.649-2.432l6.785-0.162
					C437.434,137.67,416.971,167.374,416.971,167.374z"/>
			</g>
			<path style="fill:#65B204;" d="M414.346,163.221c0,0-20.191-18.566-36.677,3.581l2.795,0.029l3.404-2.619l-1.317,2.429
				l2.218-0.121l2.569-2.905l-0.553,2.843l7.841-1.038l2.246-2.915l-0.424,2.913l8.285,1.188l2.628-2.709l-0.481,2.716l10.982,0.338
				L414.346,163.221z"/>
			<path style="fill:#B5EA00;" d="M417.798,166.915c0,0,8.979,11.489,3.039,27.616l-2.215,0.121l1.36,2.063l-6.152,8.898
				l-2.113-0.98l0.469,1.575c0,0-5.677,4.363-12.568,4.262c0,0,3.259-11.794,3.207-14.136l3.089,1.013l-2.581-2.558l0.448-1.742
				l5.117,0.628l-3.742-2.858l3.193-9.844l5.188,0.499l-4.297-1.835l3.943-1.17l-2.871-1.722l2.472-5.771L417.798,166.915z"/>
			<g>
				<path style="fill:#65B204;" d="M417.798,166.915l-5.015,4.059l-2.472,5.771l2.871,1.722l-3.943,1.17l4.297,1.835l-5.188-0.499
					l-3.193,9.844l3.742,2.858l-5.117-0.628l-0.448,1.742l2.581,2.558l-3.089-1.013c0.052,2.342-3.207,14.136-3.207,14.136
					C426.257,190.031,417.798,166.915,417.798,166.915z"/>
				<path style="fill:#237812;" d="M419.982,196.715l-1.36-2.063l2.215-0.121c5.94-16.127-3.039-27.616-3.039-27.616
					s8.459,23.116-18.181,43.555c6.892,0.102,12.568-4.262,12.568-4.262l-0.469-1.575l2.113,0.98L419.982,196.715z"/>
			</g>
			<path style="fill:#B5EA00;" d="M378.229,166.527c0,0,8.69-10.83,18.392-10.115c9.699,0.717,16.622,6.708,16.622,6.708
				s-7.129-4.695-12.553-4.911l5.968,2.411l-3.209,1.649l-5.946,0.424l1.582-4.114l-3.875,3.46l-6.752,1.449l1.38-3.378
				l-5.349,3.639l1.01-2.539C385.499,161.21,381.153,163.732,378.229,166.527z"/>
			<path style="fill:#65B204;" d="M446.269,145.235c0,0-14.246,0.041-28.64,20.926c0,0,3.53-9.249,12.549-15.353
				C439.196,144.705,446.269,145.235,446.269,145.235z"/>
			<path style="fill:#B5EA00;" d="M420.468,167.784c0,0,15.066,6.068,12.397,23.103c0,0-1.312,9.956-5.403,17.039
				C427.461,207.926,441.767,182.941,420.468,167.784z"/>
		</g>
		<path style="fill:#B5EA00;" d="M417.792,169.588l-4.283,1.546l-1.619,4.979l4.688,3.482l-4.769,0.026l4.166,2.001
			c0,0-1.965,7.564-5.461,12.863l-3.871,0.463l4.279,1.922c0,0-4.049,7.23-10.213,13.561c0,0,11.238-9.282,15.703-21.62
			C420.877,176.473,417.792,169.588,417.792,169.588z"/>
		<path style="fill:#65B204;" d="M397.413,139.246c0,0,15.484,4.969,18.946,23.479l-4.767-3.145l-2.012-3.078l2.497-0.621
			l-2.757-0.064l-2.352-3.538l3.128-1.909l-4.088-1.048l1.72-1.742C407.729,147.58,405.288,143.589,397.413,139.246z"/>
	</g>
	<g>
		<g>
			<path style="fill:#834523;" d="M242.622,131.398c0,0,29.926,20.871,30.287,69.612l-9.152,0.341
				C263.757,201.352,264.063,160.65,242.622,131.398z"/>
			<g>
				<path style="fill:#834523;" d="M242.622,131.398c0,0,2.772,1.936,6.636,5.996c-0.169-0.059-0.274-0.095-0.274-0.095l0.246,1.64
					l0.924,0.241c0,0-1.08,0.497-0.697,0.941c0.384,0.444,3.965,5.534,3.965,5.534l1.472,0.127l-0.87,1.224
					c2.257,1.565,6.354,13.05,6.354,13.05l3.122,0.159l-3.342,1.315l2.224,7.981l3.412,0.605l-2.875,1.482l0.906,4.641
					c2.296,0.096,3.881,0.862,3.881,0.862l-3.629,0.961c1.04,3.352,2.171,18.797,2.171,18.797l6.545-0.327
					c0.065,1.465,0.107,2.958,0.118,4.478l-9.152,0.341C263.757,201.352,264.063,160.65,242.622,131.398z"/>
			</g>
			<path style="fill:#71482D;" d="M251.45,140.354c0,0,19.478,20.897,20.628,54.822l-0.375-0.229
				C271.703,194.946,270.43,164.201,251.45,140.354z"/>
			<path style="fill:#237812;" d="M243.957,132.814c0.499-0.142-8.141-5.316-18.922-2.834l0.819,2.291l-2.726-0.998
				c0,0-4.956,4.706-5.859,13.174l2.752,1.728l-3.112,1.705c0,0,1.043,8.269,4.507,12.66c0,0,2.912-7.073,3.733-7.96l-1.43-2.267
				l2.365,1.133l4.523-6.401l-1.333-3.005l2.017,1.635C231.292,143.675,234.888,135.354,243.957,132.814z"/>
			<g>
				<path style="fill:#65B204;" d="M243.614,132.474c0.29,0.191,0.417,0.32,0.343,0.341c-9.069,2.539-12.665,10.86-12.665,10.86
					l-2.017-1.635l1.333,3.005l-4.523,6.401l-2.365-1.133l1.43,2.267c-0.821,0.887-3.733,7.96-3.733,7.96
					s-0.373-13.182,5.915-21.482C232.655,132.03,241.139,132.243,243.614,132.474z"/>
			</g>
			<path style="fill:#237812;" d="M243.658,132.154c0,0,9.607-15.115,27.728-13.32l3.261,1.435l-3.852,2.345l-3.628-1.422
				c0,0,0.42,1.449,0.705,1.716c0.285,0.263-2.137,1.638-2.137,1.638l-3.899-1.321l2.181,1.935l-3.053,1.673l-3.57-2.341
				l2.489,2.839C259.882,127.329,253.041,133.085,243.658,132.154z"/>
			<path style="fill:#65B204;" d="M244.527,133.342c0,0,2.541-5.593,2.091-10.249l-1.661-0.304l1.888-0.988l-2.054-5.88
				l-1.843-0.296c0,0,0.879-0.951,0.972-0.954c0.092-0.003-2.988-3.921-4.297-4.604l-1.348,0.693l0.596-1.214
				c0,0-4.069-3.423-9.903-5.037c0,0-3.159-1.164-5.786-0.333l5.048,2.652l-2.901,0.842c0,0,3.006,6.853,3.583,7.563l2.253-1.001
				l-1.3,1.974l3.124,5.106l1.505-1.431l-0.549,2.494l3.086,4.1C237.03,126.476,242.026,132.611,244.527,133.342z"/>
			<g>
				<path style="fill:#237812;" d="M244.527,133.342c-2.501-0.73-7.497-6.866-7.497-6.866l-3.086-4.1l0.549-2.494l-1.505,1.431
					l-3.124-5.106l1.3-1.974l-2.253,1.001c-0.577-0.711-3.583-7.563-3.583-7.563l2.901-0.842l-5.048-2.652
					C240.195,103.355,244.527,133.342,244.527,133.342z"/>
			</g>
			<path style="fill:#65B204;" d="M248.051,131.194c0,0,22.12-6.45,26.274,16.366l-2.115-1.02l-1.586-3.24l0.086,2.319l-1.624-0.918
				l-0.852-3.145l-0.644,2.347l-5.516-3.704l-0.604-3.031l-0.767,2.351l-6.68-2.194l-0.969-3.019l-0.649,2.224l-8.392-3.839
				L248.051,131.194z"/>
			<path style="fill:#B5EA00;" d="M244.075,132.689c0,0-11.041,5.301-12.58,19.654l1.621,0.917l-1.792,1.045l1.314,8.992
				l1.957,0.049l-0.94,1.012c0,0,2.648,5.4,7.872,7.893c0,0,1.943-10.093,2.855-11.836l-2.702-0.39l2.896-0.963l0.312-1.478
				l-4.086-1.434l3.882-0.758l1.266-8.6l-4.091-1.558l3.918,0.22l-2.532-2.35l2.803-0.226l0.291-5.267L244.075,132.689z"/>
			<g>
				<path style="fill:#65B204;" d="M244.075,132.689l2.263,4.924l-0.291,5.267l-2.803,0.226l2.532,2.35l-3.918-0.22l4.091,1.558
					l-1.266,8.6l-3.882,0.758l4.086,1.434l-0.312,1.478l-2.896,0.963l2.702,0.39c-0.912,1.743-2.855,11.836-2.855,11.836
					C229.092,146.936,244.075,132.689,244.075,132.689z"/>
				<path style="fill:#237812;" d="M231.324,154.305l1.792-1.045l-1.621-0.917c1.539-14.354,12.58-19.654,12.58-19.654
					s-14.983,14.247-2.549,39.561c-5.225-2.492-7.872-7.893-7.872-7.893l0.94-1.012l-1.957-0.049L231.324,154.305z"/>
			</g>
			<path style="fill:#B5EA00;" d="M274.005,147.145c0,0-2.504-11.391-10.074-14.47c-7.567-3.075-15.013-1.146-15.013-1.146
				s7.117-0.877,11.281,0.982l-5.392-0.409l1.8,2.438l4.319,2.536l0.342-3.688l1.627,4.049l4.543,3.607l0.22-3.056l2.67,4.732
				l0.187-2.287C270.515,140.433,272.847,143.95,274.005,147.145z"/>
			<path style="fill:#65B204;" d="M230.726,105.757c0,0,10.708,5.342,13.758,26.427c0,0,0.791-8.278-3.723-16.233
				C236.246,107.993,230.726,105.757,230.726,105.757z"/>
			<path style="fill:#B5EA00;" d="M241.742,132.348c0,0-13.604-1.048-17.942,12.77c0,0-2.724,7.982-2.284,14.84
				C221.516,159.957,220.06,135.817,241.742,132.348z"/>
		</g>
		<path style="fill:#B5EA00;" d="M243.084,134.702l2.648,2.76l-0.638,4.352l-4.827,0.875l3.58,1.797l-3.882-0.047
			c0,0-1.341,6.426-0.684,11.719l2.742,1.791l-3.938-0.148c0,0,0.353,6.952,2.633,14.015c0,0-5-11.176-3.762-22.128
			C238.195,138.734,243.084,134.702,243.084,134.702z"/>
		<path style="fill:#65B204;" d="M269.733,119.459c0,0-13.508-2.032-23.013,10.611l4.76-0.591l2.662-1.567l-1.648-1.398l2.098,0.98
			l3.09-1.787l-1.645-2.604l3.469,0.735l-0.645-1.952C258.861,121.887,262.188,119.792,269.733,119.459z"/>
	</g>
	<g>
		<g>
			<path style="fill:#834523;" d="M356.417,134.025c0,0-43.416,14.455-61.191,72.944l10.887,3.667
				C306.112,210.637,320.222,161.578,356.417,134.025z"/>
			<g>
				<path style="fill:#834523;" d="M356.417,134.025c0,0-4.025,1.341-10.114,4.851c0.223-0.011,0.362-0.017,0.362-0.017
					l-0.878,1.885l-1.197-0.04c0,0,1.121,0.984,0.503,1.382c-0.619,0.398-6.736,5.245-6.736,5.245l-1.815-0.371l0.612,1.781
					c-3.272,1.08-12.284,13.436-12.284,13.436l-3.813-0.921l3.553,2.77l-5.517,8.809l-4.317-0.486l2.932,2.807l-2.741,5.259
					c-2.795-0.703-4.976-0.345-4.976-0.345l4.023,2.446c-2.442,3.66-9.298,21.834-9.298,21.834l-7.754-2.723
					c-0.601,1.739-1.18,3.52-1.736,5.343l10.887,3.667C306.112,210.637,320.222,161.578,356.417,134.025z"/>
			</g>
			<path style="fill:#71482D;" d="M342.611,141.655c0,0-30.859,18.203-44.31,58.593l0.532-0.143
				C298.834,200.105,311.304,163.584,342.611,141.655z"/>
			<path style="fill:#237812;" d="M354.307,135.253c-0.549-0.346,11.681-3.497,23.767,3.324l-1.801,2.463l3.632-0.23
				c0,0,4.285,7.424,2.36,17.928l-3.925,1.099l3.137,3.158c0,0-4.194,9.573-9.924,13.623c0,0-0.985-9.542-1.657-10.9l2.525-2.219
				l-3.246,0.522l-3.165-9.309l2.672-3.139l-3.006,1.248C365.676,152.82,364.31,141.533,354.307,135.253z"/>
			<g>
				<path style="fill:#65B204;" d="M354.84,134.966c-0.417,0.127-0.614,0.236-0.533,0.287c10.003,6.28,11.369,17.567,11.369,17.567
					l3.006-1.248l-2.672,3.139l3.165,9.309l3.246-0.522l-2.525,2.219c0.672,1.358,1.657,10.9,1.657,10.9s5.139-15.721,0.528-27.939
					C368.178,138.33,357.898,135.569,354.84,134.966z"/>
			</g>
			<path style="fill:#237812;" d="M354.899,134.564c0,0-6.175-21.596-28.607-25.882l-4.431,0.566l3.798,4.188l4.87-0.419
				c0,0-1.023,1.593-1.459,1.813c-0.436,0.215,1.988,2.73,1.988,2.73l5.159-0.203l-3.313,1.553l3.078,3.098l5.126-1.546
				l-4.004,2.528C337.105,122.991,343.286,132.347,354.899,134.564z"/>
			<path style="fill:#65B204;" d="M353.435,135.686c0,0-1.068-7.631,1.13-13.071l2.106,0.226l-1.919-1.861l4.56-6.339l2.322,0.299
				c0,0-0.718-1.456-0.829-1.491c-0.108-0.037,4.988-3.652,6.806-4.01l1.374,1.313l-0.284-1.672c0,0,6.11-2.669,13.704-2.533
				c0,0,4.213-0.276,7.075,1.657l-7.014,1.393l3.188,2.046c0,0-6.051,7.171-7,7.821l-2.353-2.006l0.859,2.837l-5.571,5.029
				l-1.302-2.256l-0.227,3.194l-5.17,3.833C364.893,130.094,356.702,135.697,353.435,135.686z"/>
			<g>
				<path style="fill:#237812;" d="M353.435,135.686c3.268,0.012,11.458-5.592,11.458-5.592l5.17-3.833l0.227-3.194l1.302,2.256
					l5.571-5.029l-0.859-2.837l2.353,2.006c0.949-0.65,7-7.821,7-7.821l-3.188-2.046l7.014-1.393
					C369.311,101.162,353.435,135.686,353.435,135.686z"/>
			</g>
			<path style="fill:#65B204;" d="M349.959,131.849c0,0-24.308-15.627-37.42,10.336l2.906-0.475l3.061-3.332l-0.93,2.758l2.28-0.525
				l2.143-3.479l-0.061,3.05l7.951-2.491l1.805-3.432l0.086,3.1l8.814-0.263l2.239-3.286l-0.011,2.905l11.459-1.631L349.959,131.849
				z"/>
			<path style="fill:#B5EA00;" d="M354.208,135.06c0,0,11.394,10.304,8.139,28.114l-2.275,0.525l1.784,1.896l-4.781,10.345
				l-2.369-0.636l0.771,1.551c0,0-5.103,5.552-12.274,6.69c0,0,1.253-12.829,0.775-15.249l3.389,0.492l-3.141-2.188l0.151-1.89
				l5.426-0.271l-4.401-2.291l1.538-10.794l5.474-0.418l-4.79-1.128l3.881-1.927l-3.291-1.269l1.524-6.436L354.208,135.06z"/>
			<g>
				<path style="fill:#65B204;" d="M354.208,135.06l-4.472,5.117l-1.524,6.436l3.291,1.269l-3.881,1.927l4.79,1.128l-5.474,0.418
					l-1.538,10.794l4.401,2.291l-5.426,0.271l-0.151,1.89l3.141,2.188l-3.389-0.492c0.477,2.42-0.775,15.249-0.775,15.249
					C367.161,157.525,354.208,135.06,354.208,135.06z"/>
				<path style="fill:#237812;" d="M361.855,165.595l-1.784-1.896l2.275-0.525c3.256-17.811-8.139-28.114-8.139-28.114
					s12.953,22.465-11.007,48.485c7.171-1.139,12.274-6.69,12.274-6.69l-0.771-1.551l2.369,0.636L361.855,165.595z"/>
			</g>
			<path style="fill:#B5EA00;" d="M313.071,141.798c0,0,7.065-12.808,17.262-13.817c10.196-1.007,18.463,3.962,18.463,3.962
				s-8.246-3.587-13.915-2.831l6.631,1.425l-3.034,2.291l-6.096,1.513l0.9-4.556l-3.396,4.292l-6.746,2.723l0.821-3.757
				l-4.893,4.744l0.589-2.819C319.656,134.967,315.601,138.369,313.071,141.798z"/>
			<path style="fill:#65B204;" d="M379.846,107.42c0,0-14.778,2.613-25.948,26.888c0,0,1.995-10.237,10.254-18.199
				C372.409,108.146,379.846,107.42,379.846,107.42z"/>
			<path style="fill:#B5EA00;" d="M357.136,135.48c0,0,16.733,3.579,17.037,21.741c0,0,0.435,10.568-2.532,18.659
				C371.641,175.88,381.977,147.367,357.136,135.48z"/>
		</g>
		<path style="fill:#B5EA00;" d="M354.686,137.834l-4.167,2.378l-0.782,5.46l5.494,2.769l-4.943,0.889l4.684,1.324
			c0,0-0.674,8.206-3.346,14.335l-3.935,1.181l4.79,1.222c0,0-2.898,8.235-8.152,15.919c0,0,9.987-11.663,12.395-25.273
			C359.129,144.423,354.686,137.834,354.686,137.834z"/>
		<path style="fill:#65B204;" d="M328.058,110.021c0,0,16.969,2.363,23.902,20.949l-5.516-2.403l-2.643-2.832l2.479-1.096
			l-2.872,0.432l-3.079-3.248l2.902-2.545l-4.432-0.351l1.471-2.117C340.27,116.81,337.016,113.107,328.058,110.021z"/>
	</g>
	<g>
		<g>
			<path style="fill:#865537;" d="M305.771,81.023c0,0-36.824,46.119-14.995,121.88l14.352-3.672
				C305.128,199.232,285.957,136.247,305.771,81.023z"/>
			<g>
				<path style="fill:#865537;" d="M305.771,81.023c0,0-3.409,4.275-7.538,12.347c0.235-0.167,0.382-0.271,0.382-0.271l0.373,2.657
					l-1.323,0.797c0,0,1.906,0.276,1.514,1.143c-0.389,0.863-3.606,10.403-3.606,10.403l-2.222,0.872l1.912,1.5
					c-2.783,3.465-3.86,23.159-3.86,23.159l-4.77,1.679l5.787,0.506l0.216,13.402l-5.015,2.505l5.142,0.98l0.726,7.611
					c-3.515,1.204-5.624,3.119-5.624,3.119l6.072-0.174c-0.076,5.676,5.268,30.149,5.268,30.149l-10.3,2.499
					c0.57,2.303,1.191,4.635,1.872,6.996l14.352-3.672C305.128,199.232,285.957,136.247,305.771,81.023z"/>
			</g>
			<path style="fill:#71482D;" d="M296.192,98.97c0,0-20.609,41.358-6.808,94.504l0.476-0.526
				C289.86,192.947,277.712,144.676,296.192,98.97z"/>
			<path style="fill:#237812;" d="M304.352,83.833c-0.839,0.013,10.182-11.984,28.046-13.088l-0.218,3.93l3.768-2.799
				c0,0,9.849,5.024,15.139,17.737l-3.475,3.946l5.612,1.215c0,0,2.179,13.305-1.176,21.707c0,0-7.766-9.632-9.446-10.632
				l1.176-4.173l-3.148,2.844l-9.958-7.85l0.689-5.271l-2.377,3.46C328.985,94.859,319.584,83.605,304.352,83.833z"/>
			<g>
				<path style="fill:#65B204;" d="M304.726,83.146c-0.362,0.432-0.496,0.688-0.373,0.687c15.232-0.228,24.633,11.026,24.633,11.026
					l2.377-3.46l-0.689,5.271l9.958,7.85l3.148-2.844l-1.176,4.173c1.681,1,9.446,10.632,9.446,10.632s-5.477-20.618-19.042-30.602
					C321.521,77.425,308.46,81.653,304.726,83.146z"/>
			</g>
			<path style="fill:#237812;" d="M304.511,82.672c0,0-21.842-19.03-49.123-7.922l-4.398,3.725l7.053,1.865l4.973-3.872
				c0,0,0.015,2.443-0.306,2.984c-0.32,0.542,4.068,1.559,4.068,1.559l5.439-3.837l-2.491,4l5.502,1.192l4.461-5.271l-2.555,5.547
				C277.134,82.643,290.386,88.427,304.511,82.672z"/>
			<path style="fill:#65B204;" d="M303.71,84.915c0,0-6.512-7.509-7.951-14.938l2.435-1.235l-3.381-0.665l0.485-10.061l2.723-1.31
				c0,0-1.8-1.069-1.945-1.03c-0.144,0.036,2.832-7.455,4.548-9.116l2.41,0.454l-1.481-1.609c0,0,4.738-7.175,13.046-12.358
				c0,0,4.363-3.258,8.82-3.176l-6.61,6.433l4.886-0.026c0,0-1.514,12.008-2.085,13.376l-3.952-0.519l2.923,2.465l-2.5,9.355
				l-2.988-1.527l1.995,3.617l-2.903,7.777C312.183,70.821,307.253,82.631,303.71,84.915z"/>
			<g>
				<path style="fill:#237812;" d="M303.71,84.915c3.543-2.284,8.473-14.094,8.473-14.094l2.903-7.777l-1.995-3.617l2.988,1.527
					l2.5-9.355l-2.923-2.465l3.952,0.519c0.571-1.368,2.085-13.376,2.085-13.376l-4.886,0.026l6.61-6.433
					C296.651,36.414,303.71,84.915,303.71,84.915z"/>
			</g>
			<path style="fill:#B5EA00;" d="M297.257,83.201c0,0-37.27,0.157-33.23,37.454l2.81-2.555l0.973-5.753l0.932,3.637l2.097-2.17
				l-0.124-5.268l2.077,3.342l6.852-8.277l-0.456-4.98l2.27,3.295l9.352-6.473l0.116-5.125l2.028,3.15l11.253-9.811L297.257,83.201z
				"/>
			<path style="fill:#B5EA00;" d="M304.111,83.691c0,0,19.558,3.151,28.541,24.706l-2.096,2.166l3.261,0.799l2.094,14.55
				l-3.013,0.975l1.923,1.138c0,0-1.625,9.59-8.584,15.858c0,0-7.649-14.762-9.867-17.048l4.015-1.844l-4.934-0.164l-1.163-2.148
				l5.678-4.104l-6.368,0.61l-5.914-12.76l5.63-4.294l-5.977,2.142l2.848-4.809l-4.451,0.938l-2.871-8.033L304.111,83.691z"/>
			<g>
				<path style="fill:#B5EA00;" d="M304.111,83.691l-1.249,8.678l2.871,8.033l4.451-0.938l-2.848,4.809l5.977-2.142l-5.63,4.294
					l5.914,12.76l6.368-0.61l-5.678,4.104l1.163,2.148l4.934,0.164l-4.015,1.844c2.218,2.286,9.867,17.048,9.867,17.048
					C333.895,98.907,304.111,83.691,304.111,83.691z"/>
				<path style="fill:#65B204;" d="M333.817,111.362l-3.261-0.799l2.096-2.166c-8.983-21.555-28.541-24.706-28.541-24.706
					s29.783,15.216,22.126,60.192c6.959-6.269,8.584-15.858,8.584-15.858l-1.923-1.138l3.013-0.975L333.817,111.362z"/>
			</g>
			<path style="fill:#B5EA00;" d="M264.33,119.863c0,0-1.347-18.818,8.979-27.066c10.325-8.248,22.757-8.677,22.757-8.677
				s-11.44,1.906-17.044,6.704l8.174-3.109l-1.672,4.607l-5.534,5.915l-2.226-5.563l-0.661,7.028l-5.39,7.684l-1.745-4.642
				L268,111.313l-1.339-3.463C266.661,107.85,264.661,114.377,264.33,119.863z"/>
			<path style="fill:#65B204;" d="M312.443,35.789c0,0-14.153,13.204-9.197,47.309c0,0-5.03-12.476-1.684-26.889
				C304.908,41.795,312.443,35.789,312.443,35.789z"/>
			<path style="fill:#B5EA00;" d="M307.573,82.092c0,0,20.617-7.875,33.695,11.563c0,0,7.892,11.131,10.359,21.966
				C351.628,115.621,342.795,77.514,307.573,82.092z"/>
		</g>
		<path style="fill:#B5EA00;" d="M306.573,86.36l-2.84,5.498l2.987,6.456l7.89-0.861l-4.729,4.432l6-1.856
			c0,0,5.033,9.353,6.445,17.858l-3.429,4.042l6.039-2.041c0,0,2.646,10.944,2.353,22.946c0,0,2.624-19.631-4.33-36.048
			C316.009,90.369,306.573,86.36,306.573,86.36z"/>
		<path style="fill:#65B204;" d="M258.236,74.959c0,0,20.018-9.355,40.569,5.888l-7.653,1.272l-4.852-1.21l1.915-2.925l-2.805,2.483
			l-5.612-1.353l1.353-4.793l-5.04,2.734l0.105-3.323C276.217,73.732,270.094,72.01,258.236,74.959z"/>
	</g>
	<g>
		<path style="fill:#F9CA67;" d="M439.371,279.963c-28.887-56.183-109.956-96.643-205.454-96.643
			c-95.497,0-176.567,40.461-205.454,96.643c-2.066,4.018-3.855,8.118-5.373,12.288c22.748,9.789,108.5,17.068,210.827,17.068
			c102.327,0,188.079-7.279,210.827-17.068C443.227,288.081,441.436,283.98,439.371,279.963z"/>
		<g>
			<path style="fill:#E7A068;" d="M441.962,285.39c0.339,0.765,0.668,1.532,0.988,2.302
				C442.629,286.922,442.303,286.153,441.962,285.39z"/>
			<path style="fill:#E7A068;" d="M25.141,287.077c0.486-1.146,0.994-2.285,1.52-3.419
				C26.132,284.792,25.627,285.932,25.141,287.077z"/>
			<path style="fill:#E7A068;" d="M26.757,283.447c0.545-1.168,1.112-2.33,1.706-3.484C27.87,281.117,27.305,282.28,26.757,283.447z
				"/>
			<path style="fill:#00AFE4;" d="M443.069,287.978c0.354,0.857,0.697,1.718,1.028,2.581c-3.426,1-7.318,0.62-10.708-0.139
				c-5.15-1.151-9.527-4.413-14.707-5.566c-3.635-0.81-7.364-0.404-9.65,2.72c-1.217,1.662-1.887,3.626-3.218,5.227
				c-1.747,2.1-4.922,2.663-7.542,1.977c-1.734-0.656-3.399-1.574-4.659-2.231c-3.096-1.615-6.518-4.146-10.112-4.392
				c-4.41-0.302-4.961,2.931-6.091,6.283c-2.36,7.001-11.968,3.177-16.429,1.064c-4.467-2.114-9.608-6.435-14.795-4.587
				c-2.57,0.915-4.442,3.36-6.905,4.557c-3.374,1.639-7.191,1.956-10.873,1.594c-6.891-0.68-13.341-4.171-19.458-7.157
				c-5.833-2.849-11.657-5.383-18.176-6.122c-13.096-1.485-23.468,6.285-35.122,10.656c-5.046,1.893-10.21,2.985-15.603,2.755
				c-0.821-0.035-1.672-0.102-2.53-0.186c-4.987-1.169-9.815-3.248-14.042-5.981c-10.053-6.501-18.254-18.716-31.104-19.916
				c-6.365-0.595-13.257,1.952-19.198,3.977c-6.719,2.289-13.058,5.468-19.689,7.96c-3.103,1.167-7.503,2.586-10.291,0.12
				c-1.387-1.228-2.318-3.265-4.162-3.866c-1.591-0.519-4.384,1.499-5.669,2.027c-2.523,1.04-4.775,0.237-6.833-1.074
				c-1.192-1.097-2.469-2.111-3.886-2.986c-8.019-4.951-17.708-3.124-26.05-0.108c-9.905,3.582-19.013,9.061-28.997,12.449
				c-4.483,1.521-10.33,3.221-15.008,1.748c-3.835-1.207-4.187-6.916-6.574-9.677c-3.793-4.389-9.941-2.099-14.093,0.363
				c-2.431,1.441-4.655,3.177-6.783,5.033c-0.727,1.713-1.418,3.436-2.051,5.173c22.748,9.789,108.5,17.068,210.827,17.068
				c102.327,0,188.079-7.279,210.827-17.068C444.223,290.817,443.656,289.395,443.069,287.978z"/>
			<path style="fill:#E7A068;" d="M440.738,282.728c0.272,0.569,0.531,1.143,0.792,1.715
				C441.269,283.87,441.011,283.297,440.738,282.728z"/>
			<path style="fill:#E7A068;" d="M26.661,283.658c0.033-0.07,0.063-0.141,0.096-0.211
				C26.725,283.518,26.694,283.588,26.661,283.658z"/>
			<path style="fill:#E7A068;" d="M441.53,284.442c0.144,0.315,0.291,0.631,0.432,0.947
				C441.821,285.072,441.674,284.758,441.53,284.442z"/>
			<path style="fill:#E7A068;" d="M439.371,279.963c0.472,0.917,0.925,1.84,1.367,2.765
				C440.297,281.802,439.843,280.88,439.371,279.963z"/>
			<path style="fill:#E7A068;" d="M442.95,287.691c0.039,0.096,0.08,0.19,0.119,0.286
				C443.03,287.882,442.989,287.787,442.95,287.691z"/>
			<polygon style="fill:#E7A068;" points="25.141,287.078 25.141,287.078 25.141,287.077 			"/>
		</g>
		<g>
			<path style="fill:#ACEBFF;" d="M444.098,290.559c-3.426,1-7.318,0.62-10.708-0.139c-5.15-1.151-9.527-4.413-14.707-5.566
				c-3.635-0.81-7.364-0.404-9.65,2.72c-1.217,1.662-1.887,3.626-3.218,5.227c-1.747,2.1-4.922,2.663-7.542,1.977
				c-1.734-0.656-3.399-1.574-4.659-2.231c-3.096-1.615-6.518-4.146-10.112-4.392c-4.41-0.302-4.961,2.931-6.091,6.283
				c-2.36,7.001-11.968,3.177-16.429,1.064c-4.467-2.114-9.608-6.435-14.795-4.587c-2.57,0.915-4.442,3.36-6.905,4.557
				c-3.374,1.639-7.191,1.956-10.873,1.594c-6.891-0.68-13.341-4.171-19.458-7.157c-5.833-2.849-11.657-5.383-18.176-6.122
				c-13.096-1.485-23.468,6.285-35.122,10.656c-5.046,1.893-10.21,2.985-15.603,2.755c-0.821-0.035-1.672-0.102-2.53-0.186
				c-4.987-1.169-9.815-3.248-14.042-5.981c-10.053-6.501-18.254-18.716-31.104-19.916c-6.365-0.595-13.257,1.952-19.198,3.977
				c-6.719,2.289-13.058,5.468-19.689,7.96c-3.103,1.167-7.503,2.586-10.291,0.12c-1.387-1.228-2.318-3.265-4.162-3.866
				c-1.591-0.519-4.384,1.499-5.669,2.027c-2.523,1.04-4.775,0.237-6.833-1.074c-1.192-1.097-2.469-2.111-3.886-2.986
				c-8.019-4.951-17.708-3.124-26.05-0.108c-9.905,3.582-19.013,9.061-28.997,12.449c-4.483,1.521-10.33,3.221-15.008,1.748
				c-3.835-1.207-4.187-6.916-6.574-9.677c-3.542-4.099-9.137-2.372-13.243-0.121c4.056-1.127,8.342-1.18,9.893,2.759
				c3.25,8.25,2.25,15.75,17.25,13s50-24.75,57.25-20s6.75,13.75,14,11.75c7.25-2,6.5-7,11.75-3.25s0,20.5,26.75,11.75
				s32-21.75,42-13.5s12,24.25,41.75,15.5s35.75-13.25,46.25-4.75s24.5,11.5,37.75,4s14.25-7,22-2.5s22.5,6.25,26,0.75
				s11.75,4.5,17.25-0.25s10-3.5,18.25-3c5.352,0.324,15.646,1.064,23.585-2.206c-0.454-1.218-0.933-2.43-1.433-3.636
				C443.423,288.835,443.767,289.695,444.098,290.559z"/>
		</g>
		<path style="fill:#FFE38B;" d="M38.167,269.819c0,0,58-90.5,211.5-85c0,0,53,3,94,22.5c0,0,20,8.5-14,4s-97-11.5-68,2.5
			s56.06,39.712,7.5,32.5c-101-15-127.646-3.963-114,9c10,9.5-11.34,23.915-25,20.5c-10-2.5-8.667-19.5-37.167-7.5
			c-20.407,8.592-34.833,24.5-40.833,13.5S50.167,264.819,38.167,269.819z"/>
		<path style="opacity:0.7;fill:#F9CA67;" d="M377.667,229.819c-18-8.666-63-11.833-38.333,8.167c24.667,20,5.333,33.667-21,27
			c-26.333-6.667-96.667-16.333-77.333-3c19.333,13.333,23.666,19.667,6.666,20.667s-2,10,9,5.333c11-4.667,16.668-16,40.334-8
			c23.666,8,24.999,17.999,36.999,12.333c12-5.666,14-10,24.667-4.333c10.667,5.667,6.333-11.999,22.333-7.333
			c16,4.666,22.667,10.999,26.667-0.334s23.667,10.666,26,4C436,277.653,415.026,247.806,377.667,229.819z"/>
		<g style="opacity:0.7;">
			<path style="fill:#DC9C57;" d="M72.393,262.65c-1.601,2.349-4.031,3.481-5.429,2.529c-1.397-0.952-1.232-3.63,0.369-5.979
				c1.602-2.35,4.033-3.482,5.43-2.529C74.161,257.622,73.995,260.299,72.393,262.65z"/>
			<path style="fill:#DC9C57;" d="M82.879,261.711c-1.146,1.681-2.885,2.491-3.885,1.811c-1-0.682-0.881-2.598,0.264-4.278
				c1.146-1.681,2.885-2.491,3.885-1.81C84.144,258.114,84.025,260.029,82.879,261.711z"/>
		</g>
		<g style="opacity:0.7;">
			<path style="fill:#DC9C57;" d="M184.062,204.787c-1.011,1.484-2.548,2.2-3.431,1.599c-0.883-0.602-0.779-2.294,0.233-3.778
				c1.012-1.485,2.549-2.201,3.432-1.599C185.179,201.609,185.075,203.302,184.062,204.787z"/>
			<path style="fill:#DC9C57;" d="M190.689,204.194c-0.724,1.062-1.823,1.574-2.455,1.144c-0.632-0.431-0.557-1.642,0.167-2.703
				c0.724-1.063,1.823-1.575,2.456-1.145C191.489,201.921,191.414,203.131,190.689,204.194z"/>
		</g>
		<g style="opacity:0.7;">
			<path style="fill:#DC9C57;" d="M315.364,227.999c-1.011,1.484-2.547,2.2-3.43,1.599c-0.884-0.602-0.779-2.294,0.232-3.778
				c1.012-1.485,2.549-2.201,3.432-1.599C316.481,224.821,316.378,226.514,315.364,227.999z"/>
			<path style="fill:#DC9C57;" d="M321.992,227.406c-0.724,1.062-1.823,1.574-2.455,1.144c-0.632-0.431-0.558-1.642,0.167-2.703
				c0.725-1.063,1.823-1.575,2.455-1.145C322.792,225.133,322.717,226.343,321.992,227.406z"/>
		</g>
		<g style="opacity:0.7;">
			<path style="fill:#DC9C57;" d="M336.265,281.409c-1.011,1.484-2.547,2.2-3.43,1.599c-0.884-0.602-0.779-2.294,0.232-3.778
				c1.012-1.485,2.549-2.201,3.432-1.599C337.382,278.232,337.278,279.924,336.265,281.409z"/>
			<path style="fill:#DC9C57;" d="M342.893,280.816c-0.724,1.062-1.823,1.574-2.455,1.144c-0.632-0.431-0.558-1.642,0.167-2.703
				c0.725-1.063,1.823-1.575,2.455-1.145C343.692,278.543,343.617,279.753,342.893,280.816z"/>
		</g>
		<g style="opacity:0.7;">
			<path style="fill:#DC9C57;" d="M378.996,245.455c-0.957,1.405-2.411,2.082-3.247,1.513c-0.836-0.569-0.737-2.171,0.221-3.576
				c0.957-1.406,2.412-2.084,3.248-1.514C380.054,242.447,379.955,244.049,378.996,245.455z"/>
			<path style="fill:#DC9C57;" d="M385.269,244.894c-0.684,1.005-1.725,1.49-2.323,1.083c-0.599-0.408-0.528-1.555,0.157-2.559
				c0.687-1.006,1.727-1.491,2.324-1.084C386.027,242.742,385.956,243.887,385.269,244.894z"/>
		</g>
		<g>
			<path style="opacity:0.7;fill:#F9CA67;" d="M191.667,255.986c0,0-0.167-3.833-3.5-2.333c-3.334,1.5-3,12,4,12.833
				c7,0.833,12.833-11.167,4.833-9.167C197,257.319,197,252.653,191.667,255.986z"/>
			<path style="fill:#B588A5;" d="M190.5,254.819c0,0-0.166-3.833-3.5-2.333c-3.333,1.5-3,12,4,12.833s12.833-11.167,4.833-9.167
				C195.833,256.152,195.834,251.486,190.5,254.819z"/>
			<path style="fill:#B588A5;" d="M195.833,256.152c0,0,0.001-4.666-5.333-1.333c0,0-0.125-2.692-2.137-2.67
				c0.755,0.487,1.277,1.417,1.453,2.704c0.428,3.146-0.425,6.465-1.28,9.638c0.708,0.418,1.521,0.716,2.464,0.828
				C198,266.152,203.833,254.152,195.833,256.152z M194.003,258.782c-0.487,2.098-1.757,4.644-3.569,3.64
				c-0.964-0.534-0.834-2.46-0.684-3.329c0.217-1.258,1.152-3.368,2.221-4.083c1.337-0.895,2.06,0.639,2.228,1.743
				C194.266,257.194,194.196,257.953,194.003,258.782z M195.917,259.486c-0.29-0.02-0.476-0.214-0.5-0.5
				c-0.065-0.77,0.332-1.469,0.998-1.849c0.39-0.223,0.744,0.127,0.74,0.469c0.105,0.096,0.168,0.239,0.179,0.38
				C197.4,258.828,196.782,259.546,195.917,259.486z"/>
		</g>
		<g>
			<path style="opacity:0.7;fill:#F9CA67;" d="M244.333,279.819c0,0,0-1.5-2.332-0.833c-2.334,0.667-1,9.667,4.5,9.5
				c5.5-0.167,5.832-7.5,4.332-8s-2.5,0.5-2.5,0.5S248.167,275.819,244.333,279.819z"/>
			<path style="fill:#B588A5;" d="M243.167,278.652c0,0,0-1.5-2.333-0.833c-2.333,0.667-1,9.667,4.5,9.5s5.833-7.5,4.333-8
				s-2.5,0.5-2.5,0.5S247,274.652,243.167,278.652z"/>
			<path style="fill:#B588A5;" d="M249.667,279.319c-1.5-0.5-2.5,0.5-2.5,0.5s-0.167-5.167-4-1.167c0,0,0-1.5-2.333-0.833
				c-0.438,0.125-0.746,0.543-0.923,1.139c0.773-0.525,2.011-0.456,2.799,0.443c0.236,0.27,0.434,0.564,0.611,0.869
				c0.153-0.722,0.519-1.332,1.215-1.557c1.638-0.529,1.832,2.411,1.816,3.349c-0.017,0.94-0.111,4.495-1.935,3.634
				c-0.238-0.112-0.425-0.328-0.582-0.592c-0.131,0.379-0.321,0.726-0.607,0.994c-0.224,0.211-0.486,0.292-0.757,0.297
				c0.783,0.591,1.729,0.958,2.862,0.924C250.834,287.152,251.167,279.819,249.667,279.319z M248.474,283.884
				c-0.241,0.387-0.811,0.891-1.295,0.613c-0.374-0.215-0.417-0.692-0.376-1.08c0.111-1.051,0.429-2.321,1.136-3.139
				c0.267-0.308,0.643-0.14,0.781,0.147c0.024,0.014,0.047,0.019,0.07,0.035C249.813,281.19,248.995,283.05,248.474,283.884z"/>
		</g>
		<g>
			<path style="opacity:0.7;fill:#F9CA67;" d="M398.606,263.754c0,0-0.55-1.136-2.072,0.223c-1.523,1.36,2.782,7.69,6.888,5.549
				c4.105-2.141,1.672-7.817,0.353-7.646c-1.319,0.17-1.711,1.294-1.711,1.294S400.046,259.319,398.606,263.754z"/>
			<path style="fill:#B588A5;" d="M397.296,263.297c0,0-0.55-1.137-2.072,0.223c-1.523,1.36,2.781,7.689,6.887,5.55
				c4.105-2.141,1.672-7.818,0.354-7.648c-1.319,0.171-1.711,1.296-1.711,1.296S398.734,258.862,397.296,263.297z"/>
			<path style="fill:#B588A5;" d="M402.464,261.421c-1.319,0.171-1.711,1.296-1.711,1.296s-2.019-3.854-3.457,0.58
				c0,0-0.55-1.137-2.072,0.223c-0.286,0.255-0.367,0.685-0.283,1.201c0.394-0.682,1.356-1.082,2.283-0.688
				c0.277,0.117,0.535,0.267,0.781,0.434c-0.148-0.603-0.095-1.199,0.35-1.624c1.047-1.001,2.272,1.155,2.603,1.872
				c0.332,0.718,1.562,3.445-0.135,3.461c-0.222,0.003-0.442-0.093-0.658-0.235c0.039,0.336,0.022,0.668-0.096,0.976
				c-0.092,0.242-0.261,0.399-0.464,0.502c0.81,0.161,1.66,0.093,2.506-0.348C406.216,266.929,403.782,261.251,402.464,261.421z
				 M403.231,265.316c-0.041,0.381-0.289,0.972-0.757,0.939c-0.361-0.026-0.569-0.373-0.681-0.681
				c-0.3-0.838-0.525-1.916-0.289-2.794c0.09-0.331,0.436-0.341,0.647-0.174c0.022,0.001,0.042-0.004,0.066,0
				C403.259,262.784,403.321,264.494,403.231,265.316z"/>
		</g>
	</g>
	<path style="fill:#ACEBFF;" d="M157.467,311.397c0,0-32.194,2.056-24.479,7.778c7.715,5.724,74.984,7.417,83.448,2.092
		C224.899,315.94,183.988,309.104,157.467,311.397z"/>
	<path style="fill:#ACEBFF;" d="M423.708,303.991c0,0-21.917,1.399-16.665,5.296c5.252,3.896,51.049,5.05,56.81,1.425
		C469.616,307.086,441.764,302.432,423.708,303.991z"/>
	<path style="fill:#ACEBFF;" d="M385.002,323.697c0,0-9.848,0.629-7.488,2.38c2.36,1.751,22.938,2.27,25.526,0.641
		C405.63,325.088,393.115,322.997,385.002,323.697z"/>
	<path style="fill:#ACEBFF;" d="M336.355,310.805c0,0-7.821,0.499-5.947,1.89c1.874,1.392,18.218,1.803,20.274,0.509
		C352.739,311.909,342.8,310.248,336.355,310.805z"/>
	<path style="fill:#ACEBFF;" d="M87.406,302.358c0,0-5.363,0.343-4.078,1.297c1.285,0.953,12.492,1.235,13.901,0.349
		C98.64,303.115,91.824,301.977,87.406,302.358z"/>
	<path style="fill:#ACEBFF;" d="M112.705,321.747c0,0-4.954,0.315-3.767,1.196c1.187,0.881,11.538,1.142,12.84,0.322
		C123.081,322.446,116.785,321.395,112.705,321.747z"/>
	<path style="fill:#ACEBFF;" d="M23,294.282c0,0-8.609,0.549-6.546,2.08c2.063,1.53,20.053,1.983,22.316,0.56
		C41.033,295.497,30.092,293.669,23,294.282z"/>
	<g>
		<path style="fill:#ACEBFF;" d="M264.871,304.837c0,0-6.788,0.432-5.162,1.639c1.627,1.207,15.808,1.564,17.59,0.441
			C279.084,305.795,270.46,304.354,264.871,304.837z"/>
		<path style="fill:#ACEBFF;" d="M282.075,309.049c0,0-4.174,0.266-3.174,1.008s9.719,0.961,10.815,0.271
			C290.814,309.639,285.511,308.752,282.075,309.049z"/>
	</g>
	<path style="fill:#FFFEFA;" d="M59.5,293.486c-11.166,2.667-11-5-13-9.5c-0.291-0.656-0.628-1.198-0.986-1.665
		c1.076,2.473,1.515,5.348,1.93,7.885c0.168,1.023,0.329,2.148,0.528,3.293c2.215,3.394,6.695,2.82,6.695,2.82
		C67,297.319,89,282.152,89,282.152S70.667,290.819,59.5,293.486z"/>
	<path style="fill:#FFFEFA;" d="M162.5,282.152c0,0,27.834-16.333,39-6.833C201.5,275.319,193.833,272.985,162.5,282.152z"/>
	<path style="fill:#FFFEFA;" d="M250,297.487c0,0,3.334-0.333,9.834-3.5c6.5-3.167,21.667-10.168,26.5-8.834l1,2.167
		c0,0-7.668-0.833-17.334,3.5C260.334,295.153,255.833,297.321,250,297.487z"/>
</g>
</svg>
